<svg xmlns="http://www.w3.org/2000/svg" viewBox="0 0 900 520" role="img" aria-label=".1J7) *4(G #A1JBJ' HE51 4E'D 41B 'DB'1)">
  <defs>
    <linearGradient id="sea" x1="0" y1="0" x2="0" y2="1">
      <stop offset="0%" stop-color="#7dd3fc" stop-opacity="0.65"/>
      <stop offset="100%" stop-color="#0ea5e9" stop-opacity="0.35"/>
    </linearGradient>
    <linearGradient id="eg" x1="0" y1="0" x2="1" y2="1">
      <stop offset="0%" stop-color="#f9a8d4"/>
      <stop offset="100%" stop-color="#ec4899"/>
    </linearGradient>
  </defs>
  <rect width="900" height="520" fill="#1a0a12"/>
  <text x="450" y="36" fill="#fce7f3" font-family="Tajawal,Arial,sans-serif" font-size="22" text-anchor="middle">*B1J( DEHB9 E51 AJ #A1JBJ'</text>
  <!-- Africa simplified -->
  <path fill="#3f3f46" stroke="#fda4af" stroke-width="2" d="M180 120 C260 80 420 90 520 130 C640 100 740 160 780 260 C800 360 720 460 580 480 C420 500 280 460 200 360 C150 280 150 200 180 120 Z"/>
  <!-- Egypt NE -->
  <path fill="url(#eg)" stroke="#fbcfe8" stroke-width="3" d="M560 130 L620 118 L640 160 L630 220 L600 250 L540 230 Z"/>
  <!-- Sinai hint -->
  <path fill="#fbcfe8" fill-opacity="0.55" stroke="#fda4af" stroke-width="1.5" d="M620 118 L660 125 L652 150 L630 140 Z"/>
  <!-- Med sea -->
  <ellipse cx="540" cy="105" rx="120" ry="28" fill="url(#sea)"/>
  <text x="540" y="108" fill="#0c4a6e" font-family="Tajawal,Arial,sans-serif" font-size="14" text-anchor="middle">E*H37</text>
  <text x="620" y="200" fill="#fdf2f8" font-family="Tajawal,Arial,sans-serif" font-size="16">E51</text>
</svg>
